<?xml version="1.0" standalone="no"?><!DOCTYPE svg PUBLIC "-//W3C//DTD SVG 1.1//EN" "http://www.w3.org/Graphics/SVG/1.1/DTD/svg11.dtd"><svg t="1696515331164" class="icon" viewBox="0 0 1024 1024" version="1.1" xmlns="http://www.w3.org/2000/svg" p-id="5014" xmlns:xlink="http://www.w3.org/1999/xlink" width="200" height="200"><path d="M867.256608 885.618303 867.256608 104.954377c0-34.088376-34.941813-57.828057-66.297962-57.828057L416.678516 47.12632c-15.839757 0-30.735002 6.16235-41.932018 17.373693l-169.597653 169.592536c-11.040451 11.04659-17.366529 26.322505-17.366529 41.915645l0 608.141664c0 32.697703 26.598798 59.295478 59.295478 59.295478l553.879829 0C832.313771 943.445336 867.256608 919.699516 867.256608 885.618303zM390.998647 89.127923l-0.819668 131.47438c0 16.750499-12.154831 28.913517-28.913517 28.913517L230.603587 249.51582 390.998647 89.127923zM216.696856 884.149858 216.696856 278.429337l144.567583 0c32.965809 0 57.828057-24.854061 57.828057-57.735959l0.889253-144.659681 380.975874 0c16.927531 0 37.384445 12.889565 37.384445 28.92068l0 780.664949c0 16.009625-20.456914 28.913517-37.384445 28.913517L247.078817 914.532843C230.321154 914.531819 216.696856 900.901381 216.696856 884.149858z" p-id="5015"></path></svg>